<svg version="1.1" viewBox="0.0 0.0 1000.0 200.0" fill="none" stroke="none" stroke-linecap="square" stroke-miterlimit="10" xmlns:xlink="http://www.w3.org/1999/xlink" xmlns="http://www.w3.org/2000/svg"><clipPath id="p.0"><path d="m0 0l1000.0 0l0 200.0l-1000.0 0l0 -200.0z" clip-rule="nonzero"/></clipPath><g clip-path="url(#p.0)"><path fill="#000000" fill-opacity="0.0" d="m0 0l1000.0 0l0 200.0l-1000.0 0z" fill-rule="evenodd"/><path fill="#ffffff" d="m160.87973 -0.007874016l678.2412 0l0 0c88.85138 0 160.8797 44.774345 160.8797 100.0063c0 55.23195 -72.02832 100.0063 -160.8797 100.0063l-678.2412 0l0 0c-88.851425 0 -160.87973 -44.774353 -160.87973 -100.0063c0 -55.231956 72.028305 -100.0063 160.87973 -100.0063z" fill-rule="evenodd"/><path stroke="#ffffff" stroke-width="1.0" stroke-linejoin="round" stroke-linecap="butt" d="m160.87973 -0.007874016l678.2412 0l0 0c88.85138 0 160.8797 44.774345 160.8797 100.0063c0 55.23195 -72.02832 100.0063 -160.8797 100.0063l-678.2412 0l0 0c-88.851425 0 -160.87973 -44.774353 -160.87973 -100.0063c0 -55.231956 72.028305 -100.0063 160.87973 -100.0063z" fill-rule="evenodd"/><path fill="#00ab66" d="m160.87973 -0.005249344l678.2412 0l0 0c88.85144 0 160.8797 44.774345 160.8797 100.0063c0 55.23195 -72.02826 100.0063 -160.8797 100.0063l-678.2412 0l0 0c-88.85142 0 -160.87973 -44.774353 -160.87973 -100.0063c-4.210626E-14 -55.231956 72.02831 -100.0063 160.87973 -100.0063z" fill-rule="evenodd"/><path stroke="#00ab66" stroke-width="1.0" stroke-linejoin="round" stroke-linecap="butt" d="m160.87973 -0.005249344l678.2412 0l0 0c88.85144 0 160.8797 44.774345 160.8797 100.0063c0 55.23195 -72.02826 100.0063 -160.8797 100.0063l-678.2412 0l0 0c-88.85142 0 -160.87973 -44.774353 -160.87973 -100.0063c-4.210626E-14 -55.231956 72.02831 -100.0063 160.87973 -100.0063z" fill-rule="evenodd"/></g></svg>